<?xml version="1.0" encoding="utf-8"?><svg viewBox="0 0 502.66 502.66" xmlns="http://www.w3.org/2000/svg" xmlns:xlink="http://www.w3.org/1999/xlink"><style>:root>svg{display:none}:root>svg:target{display:block}</style><svg viewBox="0 0 18 18" id="header-icon-facebook" xmlns="http://www.w3.org/2000/svg"><path d="M12.836 6.902H10.41V5.31c0-.598.396-.737.675-.737h1.713V1.945l-2.359-.01c-2.618 0-3.214 1.96-3.214 3.215v1.752H5.709V9.61h1.515v7.664h3.185V9.61h2.15l.277-2.708z"/></svg><svg viewBox="0 0 18 18" id="header-icon-instagram" xmlns="http://www.w3.org/2000/svg"><path d="M8.952 5.302A4.071 4.071 0 004.89 9.365a4.051 4.051 0 004.063 4.064 4.071 4.071 0 004.064-4.064c0-2.222-1.841-4.063-4.064-4.063zm0 6.666A2.615 2.615 0 016.35 9.365a2.615 2.615 0 012.603-2.603 2.615 2.615 0 012.604 2.603 2.615 2.615 0 01-2.604 2.603zm4.223-5.841a.92.92 0 100-1.841.92.92 0 000 1.841z"/><path d="M15.556 2.825c-.826-.857-2-1.301-3.334-1.301h-6.54c-2.761 0-4.603 1.841-4.603 4.603v6.508c0 1.365.445 2.54 1.334 3.397.857.825 2 1.238 3.301 1.238h6.476c1.366 0 2.508-.445 3.334-1.238.857-.826 1.301-2 1.301-3.365v-6.54c0-1.333-.444-2.476-1.27-3.302zm-.19 9.842c0 .984-.287 1.777-.858 2.317-.571.54-1.365.825-2.317.825H5.713c-.952 0-1.746-.285-2.317-.825-.572-.571-.857-1.365-.857-2.35V6.128c0-.952.285-1.746.857-2.317.54-.54 1.365-.826 2.317-.826h6.54c.952 0 1.746.286 2.317.857.54.572.857 1.365.857 2.286v6.54h-.063z"/></svg><svg viewBox="0 0 18 18" id="header-icon-twitter" xmlns="http://www.w3.org/2000/svg"><path d="M17.171 4.937a6.395 6.395 0 01-1.843.505 3.216 3.216 0 001.41-1.775 6.423 6.423 0 01-2.037.779 3.21 3.21 0 00-5.468 2.927A9.11 9.11 0 012.62 4.02a3.208 3.208 0 00.993 4.284 3.197 3.197 0 01-1.453-.402v.041a3.211 3.211 0 002.574 3.147 3.22 3.22 0 01-1.45.055 3.213 3.213 0 002.998 2.228 6.437 6.437 0 01-4.751 1.329 9.082 9.082 0 004.919 1.442c5.903 0 9.13-4.89 9.13-9.13a9.23 9.23 0 00-.009-.416 6.514 6.514 0 001.601-1.661z"/></svg><svg viewBox="0 0 502.664 502.664" id="icon" xmlns="http://www.w3.org/2000/svg"><path d="M153.821 358.226L0 274.337v-46.463l153.821-83.414v54.574L46.636 250.523l107.185 53.431v54.272zm26.273 29.358L282.103 115.08h32.227L212.084 387.584h-31.99zm168.749-29.358v-54.272l107.164-52.999-107.164-52.59v-53.927l153.821 83.522v46.183l-153.821 84.083z"/></svg></svg>